{
  "source": "C:\\Users\\Peter\\Desktop\\stuff\\MIUN\\quantitative_research\\video_compression\\videos\\BVI-HD\\PlasmaSlowRandom_1920x1080_60fps.mp4",
  "output": "C:\\Users\\Peter\\Desktop\\stuff\\MIUN\\quantitative_research\\video_compression\\compressed_videos\\BVI-HD\\av1\\12\\PlasmaSlowRandom_1920x1080_60fps_av1.mkv",
  "codec": "av1",
  "ok": "Input #0, mov,mp4,m4a,3gp,3g2,mj2, from 'C:\\Users\\Peter\\Desktop\\stuff\\MIUN\\quantitative_research\\video_compression\\videos\\BVI-HD\\PlasmaSlowRandom_1920x1080_60fps.mp4':\n  Metadata:\n    major_brand     : isom\n    minor_version   : 512\n    compatible_brands: isomiso2avc1mp41\n    encoder         : Lavf54.28.101\n  Duration: 00:00:05.00, start: 0.000000, bitrate: 23030 kb/s\n  Stream #0:0[0x1](und): Video: h264 (High 4:4:4 Predictive) (avc1 / 0x31637661), yuv420p(progressive), 1920x1080, 23026 kb/s, 60 fps, 60 tbr, 60 tbn (default)\n    Metadata:\n      handler_name    : VideoHandler\n      vendor_id       : [0][0][0][0]\n[out#0/matroska @ 00000230fb9894c0] Codec AVOption b:a (set bitrate (in bits/s)) has not been used for any stream. The most likely reason is either wrong type (e.g. a video option with no video streams) or that it is a private option of some decoder which was not actually used for any stream.\nStream mapping:\n  Stream #0:0 -> #0:0 (h264 (native) -> av1 (libsvtav1))\nPress [q] to stop, [?] for help\nSvt[info]: -------------------------------------------\nSvt[info]: SVT [version]:\tSVT-AV1 Encoder Lib v3.1.0-19-g6ecfe8ec\nSvt[info]: SVT [build]  :\tGCC 15.2.0\t 64 bit\nSvt[info]: LIB Build date: Aug 17 2025 11:37:13\nSvt[info]: -------------------------------------------\nSvt[info]: Level of Parallelism: 5\nSvt[info]: Number of PPCS 93\nSvt[info]: [asm level on system : up to avx2]\nSvt[info]: [asm level selected : up to avx2]\nSvt[info]: -------------------------------------------\nSvt[info]: SVT [config]: main profile\ttier (auto)\tlevel (auto)\nSvt[info]: SVT [config]: width / height / fps numerator / fps denominator \t\t: 1920 / 1080 / 60 / 1\nSvt[info]: SVT [config]: bit-depth / color format \t\t\t\t\t: 8 / YUV420\nSvt[info]: SVT [config]: preset / tune / pred struct \t\t\t\t\t: 4 / PSNR / random access\nSvt[info]: SVT [config]: gop size / mini-gop size / key-frame type \t\t\t: 321 / 16 / key frame\nSvt[info]: SVT [config]: BRC mode / target bitrate (kbps)\t\t\t\t: VBR / 12000 \nSvt[info]: SVT [config]: AQ mode / Variance Boost \t\t\t\t\t: 2 / 0\nSvt[info]: SVT [config]: sharpness / luminance-based QP bias \t\t\t\t: 0 / 0\nSvt[info]: SVT [config]: QP scale compress strength \t\t\t\t\t: 0\nSvt[info]: -------------------------------------------\nOutput #0, matroska, to 'C:\\Users\\Peter\\Desktop\\stuff\\MIUN\\quantitative_research\\video_compression\\compressed_videos\\BVI-HD\\av1\\12\\PlasmaSlowRandom_1920x1080_60fps_av1.mkv':\n  Metadata:\n    major_brand     : isom\n    minor_version   : 512\n    compatible_brands: isomiso2avc1mp41\n    encoder         : Lavf62.3.100\n  Stream #0:0(und): Video: av1 (AV01 / 0x31305641), yuv420p(tv, progressive), 1920x1080, q=2-31, 12000 kb/s, 60 fps, 1k tbn (default)\n    Metadata:\n      encoder         : Lavc62.11.100 libsvtav1\n      handler_name    : VideoHandler\n      vendor_id       : [0][0][0][0]\n    Side data:\n      cpb: bitrate max/min/avg: 0/0/12000000 buffer size: 12000000 vbv_delay: N/A\nframe=    0 fps=0.0 q=0.0 size=       0KiB time=N/A bitrate=N/A speed=N/A elapsed=0:00:01.08    \nframe=    0 fps=0.0 q=0.0 size=       0KiB time=N/A bitrate=N/A speed=N/A elapsed=0:00:01.62    \nframe=    0 fps=0.0 q=0.0 size=       0KiB time=N/A bitrate=N/A speed=N/A elapsed=0:00:02.18    \nframe=    1 fps=0.4 q=1.0 size=       1KiB time=00:00:00.00 bitrate=N/A speed=   0x elapsed=0:00:02.74    \nframe=    1 fps=0.3 q=1.0 size=       1KiB time=00:00:00.00 bitrate=N/A speed=   0x elapsed=0:00:03.26    \nframe=    2 fps=0.5 q=5.0 size=       1KiB time=00:00:00.00 bitrate=N/A speed=   0x elapsed=0:00:03.82    \nframe=    5 fps=1.1 q=3.0 size=       1KiB time=00:00:00.06 bitrate=  85.4kbits/s speed=0.0153x elapsed=0:00:04.35    \nframe=    7 fps=1.4 q=4.0 size=       1KiB time=00:00:00.10 bitrate=  57.0kbits/s speed=0.0205x elapsed=0:00:04.88    \nframe=   11 fps=2.0 q=4.0 size=       1KiB time=00:00:00.16 bitrate=  34.2kbits/s speed=0.0307x elapsed=0:00:05.43    \nframe=   14 fps=2.3 q=3.0 size=       1KiB time=00:00:00.21 bitrate=  26.3kbits/s speed=0.0362x elapsed=0:00:05.98    \nframe=   18 fps=2.8 q=2.0 size=       1KiB time=00:00:00.28 bitrate=  20.1kbits/s speed=0.0436x elapsed=0:00:06.50    \nframe=   21 fps=3.0 q=3.0 size=       1KiB time=00:00:00.33 bitrate=  17.1kbits/s speed=0.0475x elapsed=0:00:07.01    \nframe=   25 fps=3.3 q=3.0 size=       1KiB time=00:00:00.40 bitrate=  14.2kbits/s speed=0.053x elapsed=0:00:07.55    \nframe=   30 fps=3.7 q=2.0 size=       1KiB time=00:00:00.48 bitrate=  11.8kbits/s speed=0.0597x elapsed=0:00:08.10    \nframe=   33 fps=3.8 q=2.0 size=       1KiB time=00:00:00.53 bitrate=  10.7kbits/s speed=0.0618x elapsed=0:00:08.63    \nframe=   36 fps=3.9 q=2.0 size=       1KiB time=00:00:00.58 bitrate=   9.8kbits/s speed=0.0637x elapsed=0:00:09.15    \nframe=   38 fps=3.9 q=2.0 size=       1KiB time=00:00:00.61 bitrate=   9.2kbits/s speed=0.0637x elapsed=0:00:09.67    \nframe=   43 fps=4.2 q=2.0 size=       1KiB time=00:00:00.68 bitrate=   8.3kbits/s speed=0.0669x elapsed=0:00:10.21    \nframe=   47 fps=4.4 q=2.0 size=       1KiB time=00:00:00.75 bitrate=   7.6kbits/s speed=0.0694x elapsed=0:00:10.80    \nframe=   50 fps=4.4 q=1.0 size=       1KiB time=00:00:00.81 bitrate=   7.0kbits/s speed=0.0717x elapsed=0:00:11.38    \nframe=   52 fps=4.4 q=1.0 size=       1KiB time=00:00:00.85 bitrate=   6.7kbits/s speed=0.0713x elapsed=0:00:11.92    \nframe=   54 fps=4.3 q=1.0 size=       1KiB time=00:00:00.86 bitrate=   6.6kbits/s speed=0.0692x elapsed=0:00:12.52    \nframe=   56 fps=4.3 q=1.0 size=       1KiB time=00:00:00.91 bitrate=   6.2kbits/s speed=0.0697x elapsed=0:00:13.15    \nframe=   59 fps=4.3 q=1.0 size=       1KiB time=00:00:00.93 bitrate=   6.1kbits/s speed=0.0676x elapsed=0:00:13.81    \nframe=   61 fps=4.2 q=1.0 size=       1KiB time=00:00:00.98 bitrate=   5.8kbits/s speed=0.068x elapsed=0:00:14.45    \nframe=   64 fps=4.3 q=1.0 size=       1KiB time=00:00:01.05 bitrate=   5.4kbits/s speed=0.0698x elapsed=0:00:15.04    \nframe=   66 fps=4.2 q=1.0 size=       1KiB time=00:00:01.08 bitrate=   5.3kbits/s speed=0.0696x elapsed=0:00:15.57    \nframe=   68 fps=4.2 q=1.0 size=       1KiB time=00:00:01.11 bitrate=   5.1kbits/s speed=0.0693x elapsed=0:00:16.12    \nframe=   70 fps=4.2 q=1.0 size=       1KiB time=00:00:01.15 bitrate=   5.0kbits/s speed=0.0688x elapsed=0:00:16.70    \nframe=   73 fps=4.2 q=1.0 size=       1KiB time=00:00:01.18 bitrate=   4.8kbits/s speed=0.0685x elapsed=0:00:17.27    \nframe=   75 fps=4.2 q=1.0 size=       1KiB time=00:00:01.23 bitrate=   4.6kbits/s speed=0.0691x elapsed=0:00:17.84    \nframe=   78 fps=4.2 q=1.0 size=       1KiB time=00:00:01.28 bitrate=   4.4kbits/s speed=0.0698x elapsed=0:00:18.37    \nframe=   81 fps=4.3 q=1.0 size=       1KiB time=00:00:01.33 bitrate=   4.3kbits/s speed=0.0705x elapsed=0:00:18.90    \nframe=   84 fps=4.3 q=1.0 size=       1KiB time=00:00:01.38 bitrate=   4.1kbits/s speed=0.0711x elapsed=0:00:19.45    \nframe=   87 fps=4.4 q=1.0 size=       1KiB time=00:00:01.43 bitrate=   4.0kbits/s speed=0.0718x elapsed=0:00:19.97    \nframe=   91 fps=4.4 q=1.0 size=       1KiB time=00:00:01.50 bitrate=   3.8kbits/s speed=0.0732x elapsed=0:00:20.49    \nframe=   94 fps=4.5 q=1.0 size=       1KiB time=00:00:01.55 bitrate=   3.7kbits/s speed=0.0738x elapsed=0:00:21.01    \nframe=   98 fps=4.5 q=1.0 size=       1KiB time=00:00:01.60 bitrate=   3.6kbits/s speed=0.0742x elapsed=0:00:21.56    \nframe=  101 fps=4.6 q=1.0 size=       1KiB time=00:00:01.66 bitrate=   3.4kbits/s speed=0.0753x elapsed=0:00:22.13    \nframe=  105 fps=4.6 q=1.0 size=       1KiB time=00:00:01.73 bitrate=   3.3kbits/s speed=0.0766x elapsed=0:00:22.63    \nframe=  109 fps=4.7 q=1.0 size=       1KiB time=00:00:01.78 bitrate=   3.2kbits/s speed=0.0769x elapsed=0:00:23.17    \nframe=  113 fps=4.8 q=1.0 size=       1KiB time=00:00:01.86 bitrate=   3.1kbits/s speed=0.0785x elapsed=0:00:23.76    \nframe=  115 fps=4.7 q=1.0 size=       1KiB time=00:00:01.90 bitrate=   3.0kbits/s speed=0.0781x elapsed=0:00:24.31    \nframe=  118 fps=4.8 q=1.0 size=       1KiB time=00:00:01.95 bitrate=   2.9kbits/s speed=0.0785x elapsed=0:00:24.83    \nframe=  121 fps=4.8 q=1.0 size=       1KiB time=00:00:01.98 bitrate=   2.9kbits/s speed=0.0782x elapsed=0:00:25.34    \nframe=  124 fps=4.8 q=1.0 size=       1KiB time=00:00:02.05 bitrate=   2.8kbits/s speed=0.079x elapsed=0:00:25.93    \nframe=  129 fps=4.9 q=1.0 size=       1KiB time=00:00:02.13 bitrate=   2.7kbits/s speed=0.0807x elapsed=0:00:26.44    \nframe=  131 fps=4.9 q=1.0 size=       1KiB time=00:00:02.16 bitrate=   2.6kbits/s speed=0.0803x elapsed=0:00:26.96    \nframe=  134 fps=4.9 q=1.0 size=       1KiB time=00:00:02.21 bitrate=   2.6kbits/s speed=0.0806x elapsed=0:00:27.51    \nframe=  137 fps=4.9 q=1.0 size=       1KiB time=00:00:02.26 bitrate=   2.5kbits/s speed=0.0808x elapsed=0:00:28.06    \nframe=  142 fps=5.0 q=1.0 size=       1KiB time=00:00:02.35 bitrate=   2.4kbits/s speed=0.0822x elapsed=0:00:28.58    \nframe=  145 fps=5.0 q=1.0 size=       1KiB time=00:00:02.40 bitrate=   2.4kbits/s speed=0.0825x elapsed=0:00:29.10    \nframe=  148 fps=5.0 q=1.0 size=       1KiB time=00:00:02.45 bitrate=   2.3kbits/s speed=0.0827x elapsed=0:00:29.63    \nframe=  150 fps=5.0 q=1.0 size=       1KiB time=00:00:02.48 bitrate=   2.3kbits/s speed=0.0824x elapsed=0:00:30.14    \nframe=  155 fps=5.1 q=1.0 size=       1KiB time=00:00:02.56 bitrate=   2.2kbits/s speed=0.0837x elapsed=0:00:30.65    \nframe=  160 fps=5.1 q=1.0 size=       1KiB time=00:00:02.65 bitrate=   2.1kbits/s speed=0.085x elapsed=0:00:31.18    \nframe=  163 fps=5.1 q=1.0 size=       1KiB time=00:00:02.70 bitrate=   2.1kbits/s speed=0.0851x elapsed=0:00:31.73    \nframe=  166 fps=5.1 q=1.0 size=       1KiB time=00:00:02.75 bitrate=   2.1kbits/s speed=0.0852x elapsed=0:00:32.28    \nframe=  170 fps=5.2 q=1.0 size=       1KiB time=00:00:02.81 bitrate=   2.0kbits/s speed=0.0858x elapsed=0:00:32.81    \nframe=  176 fps=5.3 q=1.0 size=       1KiB time=00:00:02.90 bitrate=   2.0kbits/s speed=0.0869x elapsed=0:00:33.35    \nframe=  178 fps=5.3 q=1.0 size=       1KiB time=00:00:02.95 bitrate=   1.9kbits/s speed=0.0871x elapsed=0:00:33.88    \nframe=  181 fps=5.3 q=1.0 size=       1KiB time=00:00:03.00 bitrate=   1.9kbits/s speed=0.0872x elapsed=0:00:34.41    \nframe=  185 fps=5.3 q=1.0 size=       1KiB time=00:00:03.06 bitrate=   1.9kbits/s speed=0.0878x elapsed=0:00:34.94    \nframe=  189 fps=5.3 q=1.0 size=       1KiB time=00:00:03.13 bitrate=   1.8kbits/s speed=0.0884x elapsed=0:00:35.46    \nframe=  193 fps=5.4 q=1.0 size=       1KiB time=00:00:03.20 bitrate=   1.8kbits/s speed=0.0889x elapsed=0:00:35.97    \nframe=  196 fps=5.4 q=1.0 size=       1KiB time=00:00:03.25 bitrate=   1.8kbits/s speed=0.089x elapsed=0:00:36.50    \nframe=  199 fps=5.4 q=1.0 size=       1KiB time=00:00:03.30 bitrate=   1.7kbits/s speed=0.0891x elapsed=0:00:37.02    \nframe=  205 fps=5.5 q=1.0 size=       1KiB time=00:00:03.40 bitrate=   1.7kbits/s speed=0.0905x elapsed=0:00:37.55    \nframe=  209 fps=5.5 q=1.0 size=       1KiB time=00:00:03.46 bitrate=   1.6kbits/s speed=0.091x elapsed=0:00:38.10    \nframe=  215 fps=5.6 q=1.0 size=       1KiB time=00:00:03.56 bitrate=   1.6kbits/s speed=0.0923x elapsed=0:00:38.64    \nframe=  217 fps=5.5 q=1.0 size=       1KiB time=00:00:03.60 bitrate=   1.6kbits/s speed=0.0919x elapsed=0:00:39.18    \nframe=  221 fps=5.6 q=1.0 size=       1KiB time=00:00:03.66 bitrate=   1.6kbits/s speed=0.0923x elapsed=0:00:39.72    \nframe=  227 fps=5.6 q=1.0 size=       1KiB time=00:00:03.76 bitrate=   1.5kbits/s speed=0.0935x elapsed=0:00:40.29    \nframe=  233 fps=5.7 q=1.0 size=       1KiB time=00:00:03.86 bitrate=   1.5kbits/s speed=0.0947x elapsed=0:00:40.84    \nframe=  235 fps=5.7 q=1.0 size=       1KiB time=00:00:03.90 bitrate=   1.5kbits/s speed=0.0942x elapsed=0:00:41.40    \nframe=  239 fps=5.7 q=1.0 size=       1KiB time=00:00:03.93 bitrate=   1.4kbits/s speed=0.0938x elapsed=0:00:41.94    \nframe=  245 fps=5.8 q=1.0 size=       1KiB time=00:00:04.06 bitrate=   1.4kbits/s speed=0.0957x elapsed=0:00:42.48    \nframe=  249 fps=5.8 q=1.0 size=       1KiB time=00:00:04.13 bitrate=   1.4kbits/s speed=0.0961x elapsed=0:00:43.02    \nframe=  251 fps=5.8 q=1.0 size=       1KiB time=00:00:04.16 bitrate=   1.4kbits/s speed=0.0956x elapsed=0:00:43.58    \nframe=  255 fps=5.8 q=1.0 size=    5120KiB time=00:00:04.23 bitrate=9907.8kbits/s speed=0.0959x elapsed=0:00:44.12    \nframe=  261 fps=5.8 q=1.0 size=    5120KiB time=00:00:04.30 bitrate=9754.2kbits/s speed=0.0963x elapsed=0:00:44.63    \nframe=  265 fps=5.9 q=1.0 size=    5120KiB time=00:00:04.36 bitrate=9605.3kbits/s speed=0.0966x elapsed=0:00:45.18    \nframe=  265 fps=5.8 q=1.0 size=    5120KiB time=00:00:04.40 bitrate=9532.5kbits/s speed=0.0962x elapsed=0:00:45.71    \nframe=  269 fps=5.8 q=1.0 size=    5120KiB time=00:00:04.46 bitrate=9390.2kbits/s speed=0.0965x elapsed=0:00:46.26    \nframe=  275 fps=5.9 q=1.0 size=    5120KiB time=00:00:04.53 bitrate=9252.1kbits/s speed=0.0968x elapsed=0:00:46.82    \nframe=  277 fps=5.9 q=1.0 size=    5120KiB time=00:00:04.60 bitrate=9118.1kbits/s speed=0.0972x elapsed=0:00:47.34    \nframe=  281 fps=5.9 q=1.0 size=    5120KiB time=00:00:04.66 bitrate=8987.8kbits/s speed=0.0975x elapsed=0:00:47.86    \nframe=  285 fps=5.9 q=1.0 size=    5120KiB time=00:00:04.73 bitrate=8861.2kbits/s speed=0.0978x elapsed=0:00:48.40    \nframe=  295 fps=6.0 q=1.0 size=    5120KiB time=00:00:04.90 bitrate=8559.8kbits/s speed= 0.1x elapsed=0:00:48.95    \n[out#0/matroska @ 00000230fb9894c0] video:6116KiB audio:0KiB subtitle:0KiB other streams:0KiB global headers:0KiB muxing overhead: 0.036243%\nframe=  300 fps=6.1 q=5.0 Lsize=    6119KiB time=00:00:04.98 bitrate=10058.4kbits/s speed=0.102x elapsed=0:00:49.06    \n",
  "seconds": 49.7080602645874,
  "probe_out": {}
}